<svg width="1280" height="720" xmlns="http://www.w3.org/2000/svg" xmlns:xlink="http://www.w3.org/1999/xlink" overflow="hidden"><defs><clipPath id="clip0"><rect x="0" y="0" width="1280" height="720"/></clipPath></defs><g clip-path="url(#clip0)"><rect x="0" y="0" width="1280" height="720" fill="#FFFFFF"/><rect x="0" y="0" width="1280" height="731" fill="#F3F4F6"/><path d="M624.5 595C624.5 592.515 626.515 590.5 629 590.5 631.485 590.5 633.5 592.515 633.5 595 633.5 597.485 631.485 599.5 629 599.5 626.515 599.5 624.5 597.485 624.5 595Z" stroke="#0078DC" stroke-linejoin="round" stroke-miterlimit="10" fill="#60A5FA" fill-rule="evenodd"/><path d="M557 118.5C557 74.0411 593.265 38 638 38 682.735 38 719 74.0411 719 118.5 719 162.959 682.735 199 638 199 593.265 199 557 162.959 557 118.5Z" fill="#60A5FA" fill-rule="evenodd"/><text fill="#FFFFFF" font-family="Segoe UI,Segoe UI_MSFontService,sans-serif" font-weight="400" font-size="24" transform="translate(579.261 125)">Companies</text><path d="M557 601.5C557 557.041 593.265 521 638 521 682.735 521 719 557.041 719 601.5 719 645.959 682.735 682 638 682 593.265 682 557 645.959 557 601.5Z" fill="#60A5FA" fill-rule="evenodd"/><text fill="#FFFFFF" font-family="Segoe UI,Segoe UI_MSFontService,sans-serif" font-weight="400" font-size="24" transform="translate(609.677 610)">Peers</text><path d="M776 239C776 194.817 812.265 159 857 159 901.735 159 938 194.817 938 239 938 283.183 901.735 319 857 319 812.265 319 776 283.183 776 239Z" fill="#60A5FA" fill-rule="evenodd"/><text fill="#FFFFFF" font-family="Segoe UI,Segoe UI_MSFontService,sans-serif" font-weight="400" font-size="24" transform="translate(786.753 248)">Communities</text><path d="M342 239C342 194.817 378.265 159 423 159 467.735 159 504 194.817 504 239 504 283.183 467.735 319 423 319 378.265 319 342 283.183 342 239Z" fill="#60A5FA" fill-rule="evenodd"/><text fill="#FFFFFF" font-family="Segoe UI,Segoe UI_MSFontService,sans-serif" font-weight="400" font-size="24" transform="translate(376.08 248)">Investors</text><path d="M342 481C342 436.817 378.265 401 423 401 467.735 401 504 436.817 504 481 504 525.183 467.735 561 423 561 378.265 561 342 525.183 342 481Z" fill="#60A5FA" fill-rule="evenodd"/><text fill="#FFFFFF" font-family="Segoe UI,Segoe UI_MSFontService,sans-serif" font-weight="400" font-size="24" transform="translate(369.83 489)">Institution</text><path d="M776 481C776 436.817 812.265 401 857 401 901.735 401 938 436.817 938 481 938 525.183 901.735 561 857 561 812.265 561 776 525.183 776 481Z" fill="#60A5FA" fill-rule="evenodd"/><text fill="#FFFFFF" font-family="Segoe UI,Segoe UI_MSFontService,sans-serif" font-weight="400" font-size="24" transform="translate(805.17 487)">Individual</text></g></svg>