<svg width="960" height="720" xmlns="http://www.w3.org/2000/svg" xmlns:xlink="http://www.w3.org/1999/xlink" overflow="hidden"><defs><clipPath id="clip0"><rect x="0" y="0" width="960" height="720"/></clipPath></defs><g clip-path="url(#clip0)"><rect x="0" y="0" width="960" height="720" fill="#FFFFFF"/><rect x="0" y="0" width="960" height="720" fill="#F3F4F6"/><path d="M463.5 616.5C463.5 613.739 465.739 611.5 468.5 611.5 471.261 611.5 473.5 613.739 473.5 616.5 473.5 619.261 471.261 621.5 468.5 621.5 465.739 621.5 463.5 619.261 463.5 616.5Z" stroke="#0078DC" stroke-linejoin="round" stroke-miterlimit="10" fill="#60A5FA" fill-rule="evenodd"/><path d="M389 97C389 48.9512 428.847 10 478 10 527.153 10 567 48.9512 567 97 567 145.049 527.153 184 478 184 428.847 184 389 145.049 389 97Z" fill="#60A5FA" fill-rule="evenodd"/><text fill="#FFFFFF" font-family="Segoe UI,Segoe UI_MSFontService,sans-serif" font-weight="400" font-size="27" transform="translate(412.334 104)">Companies</text><path d="M389 623C389 574.951 428.847 536 478 536 527.153 536 567 574.951 567 623 567 671.049 527.153 710 478 710 428.847 710 389 671.049 389 623Z" fill="#60A5FA" fill-rule="evenodd"/><text fill="#FFFFFF" font-family="Segoe UI,Segoe UI_MSFontService,sans-serif" font-weight="400" font-size="27" transform="translate(446.168 633)">Peers</text><path d="M629 228.5C629 180.175 668.623 141 717.5 141 766.377 141 806 180.175 806 228.5 806 276.825 766.377 316 717.5 316 668.623 316 629 276.825 629 228.5Z" fill="#60A5FA" fill-rule="evenodd"/><text fill="#FFFFFF" font-family="Segoe UI,Segoe UI_MSFontService,sans-serif" font-weight="400" font-size="27" transform="translate(639.63 238)">Communities</text><path d="M154 228.5C154 180.175 193.623 141 242.5 141 291.377 141 331 180.175 331 228.5 331 276.825 291.377 316 242.5 316 193.623 316 154 276.825 154 228.5Z" fill="#60A5FA" fill-rule="evenodd"/><text fill="#FFFFFF" font-family="Segoe UI,Segoe UI_MSFontService,sans-serif" font-weight="400" font-size="27" transform="translate(189.537 238)">Investors</text><path d="M154 491.5C154 443.175 193.623 404 242.5 404 291.377 404 331 443.175 331 491.5 331 539.825 291.377 579 242.5 579 193.623 579 154 539.825 154 491.5Z" fill="#60A5FA" fill-rule="evenodd"/><text fill="#FFFFFF" font-family="Segoe UI,Segoe UI_MSFontService,sans-serif" font-weight="400" font-size="27" transform="translate(182.62 502)">Institution</text><path d="M629 491.5C629 443.175 668.623 404 717.5 404 766.377 404 806 443.175 806 491.5 806 539.825 766.377 579 717.5 579 668.623 579 629 539.825 629 491.5Z" fill="#60A5FA" fill-rule="evenodd"/><text fill="#FFFFFF" font-family="Segoe UI,Segoe UI_MSFontService,sans-serif" font-weight="400" font-size="27" transform="translate(660.213 499)">Individual</text></g></svg>